<?xml version="1.0" standalone="no"?>
<!DOCTYPE svg PUBLIC "-//W3C//DTD SVG 20010904//EN"
 "http://www.w3.org/TR/2001/REC-SVG-20010904/DTD/svg10.dtd">
<svg version="1.0" xmlns="http://www.w3.org/2000/svg"
 width="1280.000000pt" height="894.000000pt" viewBox="0 0 1280.000000 894.000000"
 preserveAspectRatio="xMidYMid meet">
<g transform="translate(0.000000,894.000000) scale(0.100000,-0.100000)"
fill="#000000" stroke="none">
<path d="M10255 8917 c-30 -22 -2384 -2162 -2622 -2384 -119 -112 -121 -114
-143 -186 -60 -197 -185 -465 -278 -597 -74 -104 -160 -187 -250 -242 -82 -50
-342 -178 -361 -178 -15 0 -2435 1120 -2449 1134 -7 7 -18 67 -26 142 -55 511
-277 982 -635 1341 -622 627 -1508 776 -2296 388 -235 -115 -424 -254 -615
-451 -148 -153 -240 -274 -240 -316 0 -41 44 -114 79 -133 16 -8 206 -46 422
-85 867 -156 1605 -291 1620 -295 16 -5 509 -892 509 -916 0 -13 -668 -623
-756 -690 l-34 -26 -257 44 c-1217 205 -1806 303 -1829 303 -35 0 -98 -64 -91
-94 3 -12 19 -68 37 -126 246 -808 865 -1363 1650 -1476 140 -20 432 -20 573
0 376 54 736 206 1006 424 35 29 69 52 76 52 27 0 2040 -936 2042 -950 1 -9
-193 -188 -450 -416 -249 -221 -789 -702 -1202 -1069 -412 -368 -785 -699
-827 -736 -71 -63 -84 -70 -180 -99 -57 -17 -131 -41 -166 -53 l-63 -22 -269
-320 c-244 -290 -270 -323 -270 -356 0 -33 11 -48 111 -153 96 -100 115 -116
142 -116 25 0 110 52 367 221 184 122 346 231 359 242 12 12 55 85 93 161 55
109 80 149 117 181 834 745 2639 2349 2646 2351 12 5 2763 -1261 2783 -1280 8
-7 18 -46 23 -87 26 -217 88 -442 173 -638 46 -105 187 -357 259 -466 184
-274 433 -512 703 -671 243 -143 483 -220 816 -260 146 -18 147 -18 324 5 97
12 229 36 293 52 429 108 836 361 1127 702 161 188 176 224 134 307 -27 52
-50 66 -144 83 -71 14 -83 19 -111 52 -29 35 -35 37 -110 45 -44 5 -174 25
-290 45 -209 36 -375 65 -720 124 -600 103 -749 131 -760 143 -13 14 -470 822
-480 849 -5 12 94 105 387 366 216 192 399 353 405 357 7 4 212 -29 455 -73
1303 -236 1559 -281 1586 -281 36 0 108 51 134 96 18 30 18 31 -28 165 -267
788 -906 1349 -1654 1454 -168 23 -556 21 -728 -5 -338 -49 -623 -170 -910
-383 -87 -65 -95 -69 -120 -58 -327 145 -1482 687 -1482 696 0 17 36 47 133
110 155 100 323 169 579 234 81 21 158 45 170 54 67 45 2786 2372 2802 2398
17 28 18 33 1 132 -90 538 -408 931 -935 1153 -68 28 -206 73 -310 100 -8 2
-29 -6 -45 -19z"/>
</g>
</svg>
